<svg width="64" height="63" viewBox="0 0 64 63" fill="none" xmlns="http://www.w3.org/2000/svg">
<circle cx="31.6694" cy="31.5993" r="31.3549" fill="#6746F5"/>
<path d="M45.2182 24.0295C45.0755 23.6859 44.8025 23.4129 44.4588 23.2702C44.2898 23.1981 44.1082 23.1599 43.9245 23.1577H36.8931C36.5201 23.1577 36.1624 23.3058 35.8987 23.5695C35.635 23.8333 35.4868 24.191 35.4868 24.5639C35.4868 24.9369 35.635 25.2946 35.8987 25.5583C36.1624 25.822 36.5201 25.9702 36.8931 25.9702H40.5353L32.6743 33.8313L28.0476 29.1906C27.9169 29.0588 27.7614 28.9541 27.59 28.8827C27.4186 28.8113 27.2348 28.7746 27.0492 28.7746C26.8635 28.7746 26.6797 28.8113 26.5084 28.8827C26.337 28.9541 26.1815 29.0588 26.0507 29.1906L17.6131 37.6282C17.4813 37.7589 17.3767 37.9145 17.3053 38.0858C17.2339 38.2572 17.1971 38.441 17.1971 38.6267C17.1971 38.8123 17.2339 38.9961 17.3053 39.1675C17.3767 39.3388 17.4813 39.4944 17.6131 39.6251C17.7438 39.7569 17.8994 39.8615 18.0707 39.9329C18.2421 40.0043 18.4259 40.0411 18.6116 40.0411C18.7972 40.0411 18.981 40.0043 19.1524 39.9329C19.3237 39.8615 19.4793 39.7569 19.61 39.6251L27.0492 32.1719L31.6758 36.8126C31.8066 36.9444 31.9621 37.049 32.1335 37.1204C32.3048 37.1918 32.4886 37.2285 32.6743 37.2285C32.8599 37.2285 33.0437 37.1918 33.2151 37.1204C33.3865 37.049 33.542 36.9444 33.6727 36.8126L42.5182 27.953V31.5953C42.5182 31.9683 42.6663 32.3259 42.9301 32.5897C43.1938 32.8534 43.5515 33.0016 43.9245 33.0016C44.2974 33.0016 44.6551 32.8534 44.9188 32.5897C45.1826 32.3259 45.3307 31.9683 45.3307 31.5953V24.5639C45.3285 24.3802 45.2903 24.1986 45.2182 24.0295Z" fill="white"/>
</svg>
