<svg width="18" height="14" viewBox="0 0 18 14" fill="none" xmlns="http://www.w3.org/2000/svg">
<path d="M16.2275 4.68849C15.1147 4.68849 14.4931 5.79359 14.7463 6.61474L12.022 9.34678C11.7917 9.27771 11.4541 9.27771 11.2238 9.34678L9.2669 7.38984C9.52782 6.56869 8.90621 5.45592 7.78576 5.45592C6.67299 5.45592 6.0437 6.56102 6.30462 7.38984L2.80515 10.8816C1.984 10.6284 0.878906 11.25 0.878906 12.3628C0.878906 13.2069 1.56959 13.8976 2.41376 13.8976C3.52653 13.8976 4.14815 12.7925 3.8949 11.9714L7.3867 8.47191C7.61693 8.54098 7.9546 8.54098 8.18482 8.47191L10.1418 10.4289C9.88084 11.25 10.5025 12.3628 11.6229 12.3628C12.7357 12.3628 13.365 11.2577 13.104 10.4289L15.8361 7.70449C16.6572 7.95774 17.7623 7.33612 17.7623 6.22335C17.7623 5.37918 17.0716 4.68849 16.2275 4.68849Z" fill="#BEBEBE"/>
<path d="M11.6229 5.45607L12.3443 3.86749L13.9252 3.15379L12.3443 2.44008L11.6229 0.851501L10.9169 2.44008L9.32062 3.15379L10.9169 3.86749L11.6229 5.45607ZM2.79748 6.99093L3.18119 5.45607L4.71605 5.07236L3.18119 4.68864L2.79748 3.15379L2.41376 4.68864L0.878906 5.07236L2.41376 5.45607L2.79748 6.99093Z" fill="#FFAC33"/>
</svg>
