<svg width="50" height="60" viewBox="0 0 50 60" fill="none" xmlns="http://www.w3.org/2000/svg">
<path d="M0 29L14.1 39.3L7.2 60L25.1 47.2L43.1 60L50 0L0 29Z" fill="#F5A300"/>
<path d="M31.9 37.9L42.8 30.1H29.3L25.1 17.5L21 30.1H7.5L18.4 37.9L14.3 50.5L25.1 42.7L36 50.5L31.9 37.9Z" fill="white"/>
<path d="M31.9 37.9L42.8 30.1H29.3L25.1 17.5L21 30.1H7.5L18.4 37.9L14.3 50.5L25.1 42.7L36 50.5L31.9 37.9Z" fill="white"/>
<path d="M31.9996 26.4H35.4996L49.9996 0L30.7996 22.7L31.9996 26.4ZM49.9996 0L27.5996 13L29.3996 18.6L49.9996 0ZM46.8996 26.4L49.9996 0L40.1996 26.4H46.8996Z" fill="#FFCE31"/>
</svg>
