<svg width="23" height="30" viewBox="0 0 23 30" fill="none" xmlns="http://www.w3.org/2000/svg">
<path d="M11.2654 10.6423C11.0223 10.6423 10.7892 10.7389 10.6173 10.9108C10.4454 11.0826 10.3488 11.3158 10.3488 11.5588V25.3671C10.3488 25.8736 10.7589 26.2836 11.2654 26.2836C11.4945 26.2836 11.6875 26.2113 11.8442 26.0907L14.1476 24.2214L16.1495 28.587C16.3063 28.9126 16.6319 29.1056 16.9816 29.1056C17.1143 29.1056 17.2469 29.1056 17.3796 29.0091L20.708 27.4654C21.1663 27.2484 21.3834 26.6936 21.1422 26.2474L19.1282 21.8698L22.0346 21.3271C22.2342 21.2752 22.4144 21.1663 22.5531 21.0136C22.8788 20.6277 22.8305 20.0609 22.4084 19.7111L11.8684 10.8473L11.8563 10.8594C11.6913 10.7192 11.4819 10.6422 11.2654 10.6423M16.3786 12.2221V9.81021H22.4084V12.2221H16.3786ZM14.9677 5.9029L18.3805 2.49004L20.0809 4.19044L16.6681 7.6033L14.9677 5.9029ZM10.3488 0.162537H12.7608V6.19233H10.3488V0.162537ZM3.02867 17.8419L6.44154 14.429L8.14194 16.1294L4.72907 19.5423L3.02867 17.8419M3.02867 4.19044L4.72907 2.49004L8.14194 5.9029L6.44154 7.6033L3.02867 4.19044ZM6.73097 12.2221H0.701172V9.81021H6.73097V12.2221Z" fill="black"/>
</svg>
