<svg width="110" height="31" viewBox="0 0 110 31" fill="none" xmlns="http://www.w3.org/2000/svg">
<path d="M15.6522 24.1617H21.0497L25.8757 7.08025H20.5417L18.1604 16.4465L15.7792 7.08025H10.3499L7.8417 16.4465L5.46045 7.08025H0.158203L4.95245 24.1617H10.3817L13.0169 14.478L15.6522 24.1617Z" fill="#323232"/>
<path d="M33.2516 16.2877C33.2516 12.5095 35.6964 12.2237 39.5381 12.6047V6.95325C36.8076 6.95325 34.1089 8.09625 32.8071 10.0965V7.08025H27.8224V24.1617H33.2516V16.2877Z" fill="#323232"/>
<path d="M47.0492 24.1617V16.383L52.5737 24.1617H59.4952L52.288 15.1765L58.6062 7.08025H52.3515L47.0492 14.0017V1.36525H41.62V24.1617H47.0492Z" fill="#323232"/>
<path d="M77.7544 7.08025H72.2934L68.9914 17.653L65.3084 7.08025H59.4029L66.0704 23.9712L63.6892 30.2895H69.6264L77.7544 7.08025Z" fill="#323232"/>
<path d="M83.0264 20.8597C83.0264 18.796 81.6294 17.3672 79.5974 17.3672C77.5654 17.3672 76.1367 18.796 76.1367 20.8597C76.1367 22.8917 77.5654 24.3205 79.5974 24.3205C81.6294 24.3205 83.0264 22.8917 83.0264 20.8597Z" fill="#323232"/>
<path d="M95.5565 24.1617H99.938V13.6207C99.938 9.30275 97.1758 6.76275 92.4768 6.76275C88.254 6.76275 85.3013 9.36625 84.9838 13.335H89.8733C90.0638 11.8427 90.9528 11.0172 92.445 11.0172C93.969 11.0172 94.8262 11.8427 94.8262 13.335V14.1605C94.096 14.0335 93.2387 13.97 92.318 13.97C87.4285 13.97 84.7298 15.7797 84.7298 19.1135C84.7298 22.352 87.111 24.4792 90.667 24.4792C92.8577 24.4792 94.35 23.876 95.5565 22.5107V24.1617ZM89.8415 18.9547C89.8415 17.78 90.8258 17.1767 92.6673 17.1767C93.3658 17.1767 94.0007 17.2402 94.8262 17.399V18.4785C94.8262 19.8755 93.7468 20.7327 91.937 20.7327C90.6035 20.7327 89.8415 20.066 89.8415 18.9547Z" fill="#323232"/>
<path d="M109.481 3.1115C109.481 1.30175 108.052 0 105.989 0C103.925 0 102.496 1.30175 102.496 3.1115C102.496 4.8895 103.925 6.19125 105.989 6.19125C108.052 6.19125 109.481 4.8895 109.481 3.1115ZM108.751 24.1617V7.08025H103.322V24.1617H108.751Z" fill="#323232"/>
</svg>
